<svg width="24" height="24" viewBox="0 0 24 24" fill="none" xmlns="http://www.w3.org/2000/svg">
<path d="M13.8297 19C13.6803 19.0005 13.5327 18.9675 13.3977 18.9035C13.2627 18.8395 13.1438 18.746 13.0497 18.63L8.21968 12.63C8.07259 12.4511 7.99219 12.2266 7.99219 11.995C7.99219 11.7634 8.07259 11.5389 8.21968 11.36L13.2197 5.36C13.3894 5.15578 13.6333 5.02736 13.8978 5.00298C14.1622 4.9786 14.4255 5.06026 14.6297 5.23C14.8339 5.39974 14.9623 5.64365 14.9867 5.90808C15.0111 6.1725 14.9294 6.43578 14.7597 6.64L10.2897 12L14.6097 17.36C14.732 17.5068 14.8096 17.6855 14.8335 17.8751C14.8574 18.0646 14.8265 18.257 14.7444 18.4296C14.6624 18.6021 14.5326 18.7475 14.3705 18.8486C14.2084 18.9497 14.0207 19.0022 13.8297 19Z" fill="#928484"/>
</svg>
