<svg width="24" height="24" viewBox="0 0 24 24" fill="none" xmlns="http://www.w3.org/2000/svg">
<path d="M13.9297 19.8214C13.9297 20.4182 13.6926 20.9905 13.2707 21.4124C12.8487 21.8344 12.2764 22.0714 11.6797 22.0714C11.083 22.0714 10.5107 21.8344 10.0887 21.4124C9.66674 20.9905 9.42969 20.4182 9.42969 19.8214C9.42969 19.2247 9.66674 18.6524 10.0887 18.2304C10.5107 17.8085 11.083 17.5714 11.6797 17.5714C12.2764 17.5714 12.8487 17.8085 13.2707 18.2304C13.6926 18.6524 13.9297 19.2247 13.9297 19.8214ZM13.9297 12.3214C13.9297 12.9182 13.6926 13.4905 13.2707 13.9124C12.8487 14.3344 12.2764 14.5714 11.6797 14.5714C11.083 14.5714 10.5107 14.3344 10.0887 13.9124C9.66674 13.4905 9.42969 12.9182 9.42969 12.3214C9.42969 11.7247 9.66674 11.1524 10.0887 10.7304C10.5107 10.3085 11.083 10.0714 11.6797 10.0714C12.2764 10.0714 12.8487 10.3085 13.2707 10.7304C13.6926 11.1524 13.9297 11.7247 13.9297 12.3214V12.3214ZM13.9297 4.82143C13.9297 5.41816 13.6926 5.99046 13.2707 6.41242C12.8487 6.83437 12.2764 7.07143 11.6797 7.07143C11.083 7.07143 10.5107 6.83437 10.0887 6.41242C9.66674 5.99046 9.42969 5.41816 9.42969 4.82143C9.42969 4.22469 9.66674 3.65239 10.0887 3.23044C10.5107 2.80848 11.083 2.57143 11.6797 2.57143C12.2764 2.57143 12.8487 2.80848 13.2707 3.23044C13.6926 3.65239 13.9297 4.22469 13.9297 4.82143V4.82143Z" fill="black"/>
</svg>
