<svg width="24" height="24" viewBox="0 0 24 24" fill="none" xmlns="http://www.w3.org/2000/svg">
<path d="M12.0009 22C12.5208 22.0007 13.028 21.8182 13.4519 21.4777C13.8759 21.1371 14.1956 20.6556 14.3666 20.1H9.63514C9.80612 20.6556 10.1258 21.1371 10.5498 21.4777C10.9738 21.8182 11.481 22.0007 12.0009 22V22ZM17.8774 14.9567V10.6C17.8774 7.54385 16.0431 4.96935 13.5582 4.1951C13.3122 3.494 12.7111 3 12.0009 3C11.2906 3 10.6896 3.494 10.4436 4.1951C7.95865 4.9703 6.12433 7.54385 6.12433 10.6V14.9567L4.69129 16.5783C4.61318 16.6664 4.55123 16.7711 4.50902 16.8864C4.4668 17.0016 4.44515 17.1252 4.44531 17.25V18.2C4.44531 18.452 4.53376 18.6936 4.6912 18.8718C4.84864 19.0499 5.06217 19.15 5.28482 19.15H18.7169C18.9396 19.15 19.1531 19.0499 19.3105 18.8718C19.468 18.6936 19.5564 18.452 19.5564 18.2V17.25C19.5566 17.1252 19.5349 17.0016 19.4927 16.8864C19.4505 16.7711 19.3886 16.6664 19.3104 16.5783L17.8774 14.9567Z" fill="black"/>
</svg>
