<svg width="24" height="24" viewBox="0 0 24 24" fill="none" xmlns="http://www.w3.org/2000/svg">
<g clip-path="url(#clip0_812_15704)">
<path d="M21.3368 10H20.6702V6.00001C20.6702 5.82319 20.5999 5.65363 20.4749 5.5286C20.3499 5.40358 20.1803 5.33334 20.0035 5.33334H4.00351C3.84565 5.33591 3.692 5.28238 3.56992 5.18227C3.44783 5.08216 3.36524 4.94198 3.33684 4.78667V4.54667C3.36524 4.39137 3.44783 4.25118 3.56992 4.15107C3.692 4.05096 3.84565 3.99743 4.00351 4.00001H19.7235C19.9003 4.00001 20.0699 3.92977 20.1949 3.80474C20.3199 3.67972 20.3902 3.51015 20.3902 3.33334C20.3902 3.15653 20.3199 2.98696 20.1949 2.86193C20.0699 2.73691 19.9003 2.66667 19.7235 2.66667H4.00351C3.47308 2.66667 2.96437 2.87739 2.5893 3.25246C2.21422 3.62753 2.00351 4.13624 2.00351 4.66667C1.99883 4.7466 1.99883 4.82674 2.00351 4.90667V18.62C2.00613 18.979 2.07942 19.3339 2.21921 19.6645C2.35899 19.9951 2.56253 20.295 2.81821 20.5469C3.07388 20.7989 3.37668 20.998 3.70931 21.1329C4.04194 21.2679 4.39789 21.336 4.75684 21.3333H20.0035C20.1803 21.3333 20.3499 21.2631 20.4749 21.1381C20.5999 21.0131 20.6702 20.8435 20.6702 20.6667V16.6667H21.3368C21.5137 16.6667 21.6832 16.5964 21.8082 16.4714C21.9333 16.3464 22.0035 16.1768 22.0035 16V10.6667C22.0035 10.4899 21.9333 10.3203 21.8082 10.1953C21.6832 10.0702 21.5137 10 21.3368 10ZM19.3368 20H4.75684C4.38604 20.0036 4.02883 19.8606 3.7629 19.6022C3.49698 19.3437 3.34386 18.9908 3.33684 18.62V6.58667C3.55324 6.64938 3.77842 6.6764 4.00351 6.66667H19.3368V10H14.6702C13.7861 10 12.9383 10.3512 12.3132 10.9763C11.688 11.6014 11.3368 12.4493 11.3368 13.3333C11.3368 14.2174 11.688 15.0652 12.3132 15.6904C12.9383 16.3155 13.7861 16.6667 14.6702 16.6667H19.3368V20ZM20.6702 15.3333H14.6702C14.1397 15.3333 13.631 15.1226 13.256 14.7476C12.8809 14.3725 12.6702 13.8638 12.6702 13.3333C12.6702 12.8029 12.8809 12.2942 13.256 11.9191C13.631 11.5441 14.1397 11.3333 14.6702 11.3333H20.6702V15.3333Z" fill="black"/>
<path d="M15.3438 14.3333C15.896 14.3333 16.3438 13.8856 16.3438 13.3333C16.3438 12.781 15.896 12.3333 15.3438 12.3333C14.7915 12.3333 14.3438 12.781 14.3438 13.3333C14.3438 13.8856 14.7915 14.3333 15.3438 14.3333Z" fill="black"/>
</g>
<defs>
<clipPath id="clip0_812_15704">
<rect width="24" height="24" fill="white"/>
</clipPath>
</defs>
</svg>
