<svg width="24" height="24" viewBox="0 0 24 24" fill="none" xmlns="http://www.w3.org/2000/svg">
<path d="M10.1703 5C10.3197 4.99949 10.4673 5.03246 10.6023 5.09649C10.7373 5.16052 10.8562 5.25398 10.9503 5.37L15.7803 11.37C15.9274 11.5489 16.0078 11.7734 16.0078 12.005C16.0078 12.2366 15.9274 12.4611 15.7803 12.64L10.7803 18.64C10.6106 18.8442 10.3667 18.9726 10.1022 18.997C9.83782 19.0214 9.57454 18.9397 9.37032 18.77C9.16611 18.6003 9.03768 18.3563 9.0133 18.0919C8.98892 17.8275 9.07058 17.5642 9.24032 17.36L13.7103 12L9.39032 6.64C9.26804 6.49321 9.19036 6.31447 9.16648 6.12492C9.1426 5.93537 9.17352 5.74295 9.25558 5.57042C9.33763 5.3979 9.46739 5.25248 9.6295 5.15139C9.79161 5.0503 9.97929 4.99777 10.1703 5Z" fill="black"/>
</svg>
