<svg width="24" height="24" viewBox="0 0 24 24" fill="none" xmlns="http://www.w3.org/2000/svg">
<path d="M11.0984 8.76841C10.9064 8.98921 10.7984 9.29401 10.7984 9.60001C10.7984 9.75914 10.7352 9.91175 10.6227 10.0243C10.5102 10.1368 10.3576 10.2 10.1984 10.2C10.0393 10.2 9.88671 10.1368 9.77418 10.0243C9.66166 9.91175 9.59845 9.75914 9.59845 9.60001C9.59845 9.03241 9.79165 8.43601 10.1984 7.97521C10.6148 7.50241 11.2304 7.20001 11.9984 7.20001C12.7664 7.20001 13.382 7.50241 13.7984 7.97521C14.2052 8.43721 14.3984 9.03121 14.3984 9.60001C14.3984 10.188 14.2592 10.644 14.036 11.028C13.8404 11.3628 13.5848 11.628 13.382 11.8404L13.3316 11.892C13.1084 12.126 12.9368 12.3168 12.8108 12.5568C12.6908 12.786 12.5984 13.0896 12.5984 13.5516C12.5984 13.7107 12.5352 13.8634 12.4227 13.9759C12.3102 14.0884 12.1576 14.1516 11.9984 14.1516C11.8393 14.1516 11.6867 14.0884 11.5742 13.9759C11.4617 13.8634 11.3984 13.7107 11.3984 13.5516C11.3984 12.9132 11.5304 12.4152 11.7476 12C11.96 11.5956 12.2396 11.2992 12.4652 11.0628L12.4916 11.0352C12.7172 10.7988 12.878 10.6308 12.9992 10.4232C13.1132 10.2276 13.1984 9.98041 13.1984 9.60001C13.1984 9.29401 13.0916 8.98801 12.8984 8.76841C12.7148 8.56081 12.4304 8.40001 11.9984 8.40001C11.5664 8.40001 11.282 8.56081 11.0984 8.76841ZM11.9984 17.0544C12.1114 17.0587 12.224 17.0401 12.3295 16.9999C12.4351 16.9596 12.5314 16.8985 12.6128 16.8201C12.6942 16.7417 12.759 16.6478 12.8032 16.5438C12.8474 16.4398 12.8702 16.328 12.8702 16.215C12.8702 16.102 12.8474 15.9902 12.8032 15.8862C12.759 15.7823 12.6942 15.6883 12.6128 15.6099C12.5314 15.5316 12.4351 15.4704 12.3295 15.4302C12.224 15.3899 12.1114 15.3713 11.9984 15.3756C11.7757 15.3756 11.562 15.4641 11.4045 15.6216C11.2469 15.7792 11.1584 15.9928 11.1584 16.2156C11.1584 16.4384 11.2469 16.652 11.4045 16.8096C11.562 16.9671 11.7757 17.0556 11.9984 17.0556V17.0544ZM2.39845 12C2.39897 9.9022 3.08664 7.8623 4.35627 6.19232C5.62591 4.52233 7.40761 3.3142 9.42888 2.75269C11.4501 2.19118 13.5997 2.30721 15.5488 3.08304C17.4979 3.85887 19.1392 5.25178 20.2217 7.04873C21.3041 8.84568 21.7682 10.9477 21.5429 13.0334C21.3176 15.1191 20.4153 17.0736 18.9741 18.5979C17.5328 20.1222 15.6319 21.1325 13.5621 21.4742C11.4923 21.8159 9.36758 21.4702 7.51285 20.49L3.14485 21.582C3.04432 21.6073 2.93896 21.6061 2.83903 21.5785C2.73911 21.5509 2.64803 21.498 2.57467 21.4247C2.50132 21.3515 2.44819 21.2605 2.42046 21.1606C2.39273 21.0607 2.39135 20.9554 2.41645 20.8548L3.50845 16.4856C2.77728 15.1036 2.39615 13.5635 2.39845 12ZM11.9984 3.60001C10.5325 3.59956 9.09196 3.98276 7.81999 4.71153C6.54803 5.4403 5.48892 6.48925 4.74795 7.75414C4.00697 9.01903 3.60992 10.4558 3.59625 11.9217C3.58258 13.3876 3.95278 14.8315 4.67005 16.11C4.74538 16.2434 4.76684 16.4005 4.73005 16.5492L3.82285 20.1756L7.44925 19.2684C7.59794 19.2316 7.75507 19.2531 7.88845 19.3284C9.00836 19.9558 10.2572 20.3182 11.5389 20.3877C12.8207 20.4572 14.1014 20.232 15.2826 19.7295C16.4638 19.2269 17.5141 18.4603 18.3528 17.4885C19.1916 16.5167 19.7964 15.3657 20.121 14.1237C20.4455 12.8817 20.4811 11.5819 20.225 10.3241C19.9689 9.06619 19.4279 7.88376 18.6435 6.86757C17.8592 5.85139 16.8524 5.02847 15.7005 4.46204C14.5486 3.8956 13.2821 3.60071 11.9984 3.60001Z" fill="black"/>
</svg>
