<svg width="24" height="24" viewBox="0 0 24 24" fill="none" xmlns="http://www.w3.org/2000/svg">
<path d="M11.9936 2.3904C11.0696 2.3904 10.4588 3.0396 10.112 3.6228C9.75924 4.2144 9.57204 4.9068 9.54684 5.3532C9.49764 6.2412 9.63084 7.0188 10.0736 7.5804C10.5344 8.166 11.2256 8.3904 11.9936 8.3904C12.7724 8.3904 13.4612 8.1396 13.9196 7.554C14.3624 6.9876 14.5052 6.216 14.4476 5.3472C14.42 4.9248 14.2304 4.236 13.8788 3.642C13.5344 3.06 12.9236 2.3904 11.9948 2.3904H11.9936ZM10.7456 5.4192C10.7576 5.1756 10.8848 4.6704 11.1428 4.236C11.4068 3.7944 11.7008 3.5904 11.9948 3.5904C12.2816 3.5904 12.5768 3.7968 12.8468 4.2516C13.1072 4.6956 13.2368 5.2032 13.2512 5.4252C13.298 6.1452 13.1624 6.5748 12.9752 6.8148C12.8036 7.0332 12.5132 7.1904 11.9936 7.1904C11.4536 7.1904 11.1752 7.0404 11.0168 6.8376C10.8368 6.6096 10.7024 6.1848 10.7444 5.4192H10.7456ZM5.99844 9.6C5.36192 9.6 4.75147 9.85285 4.30138 10.3029C3.85129 10.753 3.59844 11.3635 3.59844 12V19.2H2.99844C2.83931 19.2 2.6867 19.2632 2.57417 19.3757C2.46165 19.4883 2.39844 19.6409 2.39844 19.8C2.39844 19.9591 2.46165 20.1117 2.57417 20.2243C2.6867 20.3368 2.83931 20.4 2.99844 20.4H20.9984C21.1576 20.4 21.3102 20.3368 21.4227 20.2243C21.5352 20.1117 21.5984 19.9591 21.5984 19.8C21.5984 19.6409 21.5352 19.4883 21.4227 19.3757C21.3102 19.2632 21.1576 19.2 20.9984 19.2H20.3984V12C20.3984 11.3635 20.1456 10.753 19.6955 10.3029C19.2454 9.85285 18.635 9.6 17.9984 9.6H5.99844ZM19.1984 19.2H4.79844V14.5416L6.65244 16.1976C6.88781 16.4081 7.16242 16.5701 7.46051 16.6743C7.75861 16.7784 8.07433 16.8228 8.38958 16.8047C8.70484 16.7867 9.01344 16.7066 9.29768 16.569C9.58193 16.4315 9.83624 16.2392 10.046 16.0032L11.102 14.8152C11.2146 14.6885 11.3528 14.5871 11.5074 14.5177C11.662 14.4482 11.8295 14.4123 11.999 14.4123C12.1685 14.4123 12.3361 14.4482 12.4907 14.5177C12.6453 14.5871 12.7835 14.6885 12.896 14.8152L13.9508 16.0032C14.1606 16.2395 14.4149 16.432 14.6992 16.5697C14.9835 16.7075 15.2922 16.7878 15.6076 16.8059C15.923 16.8241 16.2389 16.7798 16.5372 16.6756C16.8354 16.5715 17.1102 16.4094 17.3456 16.1988L19.1984 14.5416V19.2ZM19.1984 12.9312L16.5452 15.3036C16.4275 15.4088 16.2902 15.4898 16.1412 15.5419C15.9922 15.594 15.8343 15.6162 15.6767 15.6072C15.519 15.5981 15.3647 15.5581 15.2226 15.4893C15.0805 15.4205 14.9533 15.3244 14.8484 15.2064L13.7924 14.0184C13.5673 13.765 13.291 13.5622 12.9818 13.4233C12.6725 13.2844 12.3374 13.2126 11.9984 13.2126C11.6595 13.2126 11.3243 13.2844 11.0151 13.4233C10.7059 13.5622 10.4296 13.765 10.2044 14.0184L9.14844 15.2064C9.04354 15.3244 8.91638 15.4205 8.77426 15.4893C8.63214 15.5581 8.47784 15.5981 8.32021 15.6072C8.16258 15.6162 8.00472 15.594 7.85567 15.5419C7.70663 15.4898 7.56933 15.4088 7.45164 15.3036L4.79844 12.9312V12C4.79844 11.6817 4.92487 11.3765 5.14991 11.1515C5.37495 10.9264 5.68018 10.8 5.99844 10.8H17.9984C18.3167 10.8 18.6219 10.9264 18.847 11.1515C19.072 11.3765 19.1984 11.6817 19.1984 12V12.9312Z" fill="black"/>
</svg>
