<svg width="688" height="420" viewBox="0 0 688 420" fill="none" xmlns="http://www.w3.org/2000/svg">
<path d="M73 323H142V383H73V323Z" fill="#1C1F2C"/>
<path d="M73 313H142V323H73V313Z" fill="#D2A2F7"/>
<path d="M73 299H142V313H73V299Z" fill="#A5E3E3"/>
<path d="M173 236.718H242V383H173V236.718Z" fill="#1C1F2C"/>
<path d="M173 229.752H242V236.718H173V229.752Z" fill="#D2A2F7"/>
<path d="M173 220H242V229.752H173V220Z" fill="#A5E3E3"/>
<path d="M268 204H337V389H268V204Z" fill="#1C1F2C"/>
<path d="M268 194H337V204H268V194Z" fill="#D2A2F7"/>
<path d="M268 180H337V194H268V180Z" fill="#A5E3E3"/>
<path d="M365 179H434V389H365V179Z" fill="#1C1F2C"/>
<path d="M365 169H434V179H365V169Z" fill="#D2A2F7"/>
<path d="M365 155H434V169H365V155Z" fill="#A5E3E3"/>
<path d="M457 301H526V389H457V301Z" fill="#1C1F2C"/>
<path d="M457 291H526V301H457V291Z" fill="#D2A2F7"/>
<path d="M457 277H526V291H457V277Z" fill="#A5E3E3"/>
<path d="M557 243H626V389H557V243Z" fill="#1C1F2C"/>
<path d="M557 233H626V243H557V233Z" fill="#D2A2F7"/>
<path d="M557 219H626V233H557V219Z" fill="#A5E3E3"/>
</svg>
