<svg width="164" height="59" viewBox="0 0 164 59" fill="none" xmlns="http://www.w3.org/2000/svg">
<path d="M29 10.08L17.32 39H12.46L0.78 10.08H5.1C5.56667 10.08 5.94667 10.1933 6.24 10.42C6.53333 10.6467 6.75333 10.94 6.9 11.3L13.72 28.94C13.9467 29.5133 14.16 30.1467 14.36 30.84C14.5733 31.52 14.7733 32.2333 14.96 32.98C15.12 32.2333 15.2933 31.52 15.48 30.84C15.6667 30.1467 15.8733 29.5133 16.1 28.94L22.88 11.3C22.9867 10.9933 23.1933 10.7133 23.5 10.46C23.82 10.2067 24.2067 10.08 24.66 10.08H29ZM37.1294 18.16C38.6494 18.16 40.0294 18.4067 41.2694 18.9C42.5227 19.3933 43.5894 20.0933 44.4694 21C45.3627 21.9067 46.0494 23.0133 46.5294 24.32C47.0094 25.6267 47.2494 27.0867 47.2494 28.7C47.2494 30.3267 47.0094 31.7933 46.5294 33.1C46.0494 34.4067 45.3627 35.52 44.4694 36.44C43.5894 37.36 42.5227 38.0667 41.2694 38.56C40.0294 39.0533 38.6494 39.3 37.1294 39.3C35.596 39.3 34.2027 39.0533 32.9494 38.56C31.696 38.0667 30.6227 37.36 29.7294 36.44C28.8494 35.52 28.1627 34.4067 27.6694 33.1C27.1894 31.7933 26.9494 30.3267 26.9494 28.7C26.9494 27.0867 27.1894 25.6267 27.6694 24.32C28.1627 23.0133 28.8494 21.9067 29.7294 21C30.6227 20.0933 31.696 19.3933 32.9494 18.9C34.2027 18.4067 35.596 18.16 37.1294 18.16ZM37.1294 35.5C38.836 35.5 40.096 34.9267 40.9094 33.78C41.736 32.6333 42.1494 30.9533 42.1494 28.74C42.1494 26.5267 41.736 24.84 40.9094 23.68C40.096 22.52 38.836 21.94 37.1294 21.94C35.396 21.94 34.1094 22.5267 33.2694 23.7C32.4427 24.86 32.0294 26.54 32.0294 28.74C32.0294 30.94 32.4427 32.62 33.2694 33.78C34.1094 34.9267 35.396 35.5 37.1294 35.5ZM55.6781 22.04C56.3181 20.8133 57.0781 19.8533 57.9581 19.16C58.8381 18.4533 59.8781 18.1 61.0781 18.1C62.0248 18.1 62.7848 18.3067 63.3581 18.72L63.0381 22.42C62.9715 22.66 62.8715 22.8333 62.7381 22.94C62.6181 23.0333 62.4515 23.08 62.2381 23.08C62.0381 23.08 61.7381 23.0467 61.3381 22.98C60.9515 22.9133 60.5715 22.88 60.1981 22.88C59.6515 22.88 59.1648 22.96 58.7381 23.12C58.3115 23.28 57.9248 23.5133 57.5781 23.82C57.2448 24.1133 56.9448 24.4733 56.6781 24.9C56.4248 25.3267 56.1848 25.8133 55.9581 26.36V39H51.0181V18.48H53.9181C54.4248 18.48 54.7781 18.5733 54.9781 18.76C55.1781 18.9333 55.3115 19.2533 55.3781 19.72L55.6781 22.04ZM73.2056 28.24C73.819 28.24 74.3523 28.16 74.8056 28C75.259 27.8267 75.6323 27.5933 75.9256 27.3C76.2323 27.0067 76.459 26.6533 76.6056 26.24C76.7656 25.8267 76.8456 25.3733 76.8456 24.88C76.8456 23.8667 76.539 23.0667 75.9256 22.48C75.3256 21.88 74.419 21.58 73.2056 21.58C71.9923 21.58 71.079 21.88 70.4656 22.48C69.8656 23.0667 69.5656 23.8667 69.5656 24.88C69.5656 25.36 69.639 25.8067 69.7856 26.22C69.9456 26.6333 70.1723 26.9933 70.4656 27.3C70.7723 27.5933 71.1523 27.8267 71.6056 28C72.0723 28.16 72.6056 28.24 73.2056 28.24ZM78.7856 39.92C78.7856 39.52 78.6656 39.1933 78.4256 38.94C78.1856 38.6867 77.859 38.4933 77.4456 38.36C77.0323 38.2133 76.5456 38.1067 75.9856 38.04C75.439 37.9733 74.8523 37.9267 74.2256 37.9C73.6123 37.86 72.9723 37.8267 72.3056 37.8C71.6523 37.7733 71.0123 37.72 70.3856 37.64C69.839 37.9467 69.3923 38.3067 69.0456 38.72C68.7123 39.1333 68.5456 39.6133 68.5456 40.16C68.5456 40.52 68.6323 40.8533 68.8056 41.16C68.9923 41.48 69.279 41.7533 69.6656 41.98C70.0656 42.2067 70.579 42.38 71.2056 42.5C71.8323 42.6333 72.599 42.7 73.5056 42.7C74.4256 42.7 75.219 42.6267 75.8856 42.48C76.5523 42.3467 77.099 42.1533 77.5256 41.9C77.9656 41.66 78.2856 41.3667 78.4856 41.02C78.6856 40.6867 78.7856 40.32 78.7856 39.92ZM83.7056 19.18V21.02C83.7056 21.6067 83.3523 21.9667 82.6456 22.1L80.8056 22.44C81.0856 23.1467 81.2256 23.92 81.2256 24.76C81.2256 25.7733 81.019 26.6933 80.6056 27.52C80.2056 28.3333 79.6456 29.0267 78.9256 29.6C78.2056 30.1733 77.3523 30.62 76.3656 30.94C75.3923 31.2467 74.339 31.4 73.2056 31.4C72.8056 31.4 72.419 31.38 72.0456 31.34C71.6723 31.3 71.3056 31.2467 70.9456 31.18C70.3056 31.5667 69.9856 32 69.9856 32.48C69.9856 32.8933 70.1723 33.2 70.5456 33.4C70.9323 33.5867 71.439 33.72 72.0656 33.8C72.6923 33.88 73.4056 33.9333 74.2056 33.96C75.0056 33.9733 75.8256 34.0133 76.6656 34.08C77.5056 34.1467 78.3256 34.2667 79.1256 34.44C79.9256 34.6 80.639 34.86 81.2656 35.22C81.8923 35.58 82.3923 36.0733 82.7656 36.7C83.1523 37.3133 83.3456 38.1067 83.3456 39.08C83.3456 39.9867 83.119 40.8667 82.6656 41.72C82.2256 42.5733 81.579 43.3333 80.7256 44C79.8856 44.6667 78.8456 45.2 77.6056 45.6C76.379 46.0133 74.979 46.22 73.4056 46.22C71.859 46.22 70.5123 46.0667 69.3656 45.76C68.219 45.4667 67.2656 45.0667 66.5056 44.56C65.7456 44.0667 65.179 43.4933 64.8056 42.84C64.4323 42.1867 64.2456 41.5067 64.2456 40.8C64.2456 39.84 64.5323 39.04 65.1056 38.4C65.6923 37.7467 66.4923 37.2267 67.5056 36.84C66.959 36.56 66.5256 36.1867 66.2056 35.72C65.8856 35.2533 65.7256 34.64 65.7256 33.88C65.7256 33.5733 65.779 33.26 65.8856 32.94C66.0056 32.6067 66.1723 32.28 66.3856 31.96C66.6123 31.64 66.8923 31.34 67.2256 31.06C67.559 30.7667 67.9523 30.5067 68.4056 30.28C67.3656 29.72 66.5456 28.9733 65.9456 28.04C65.359 27.1067 65.0656 26.0133 65.0656 24.76C65.0656 23.7467 65.2656 22.8333 65.6656 22.02C66.079 21.1933 66.6456 20.4933 67.3656 19.92C68.099 19.3333 68.959 18.8867 69.9456 18.58C70.9456 18.2733 72.0323 18.12 73.2056 18.12C74.0856 18.12 74.9123 18.2133 75.6856 18.4C76.459 18.5733 77.1656 18.8333 77.8056 19.18H83.7056ZM99.7069 26.38C99.7069 25.74 99.6135 25.14 99.4269 24.58C99.2535 24.0067 98.9869 23.5067 98.6269 23.08C98.2669 22.6533 97.8069 22.32 97.2469 22.08C96.7002 21.8267 96.0602 21.7 95.3269 21.7C93.9002 21.7 92.7735 22.1067 91.9469 22.92C91.1335 23.7333 90.6135 24.8867 90.3869 26.38H99.7069ZM90.2869 29.36C90.3669 30.4133 90.5535 31.3267 90.8469 32.1C91.1402 32.86 91.5269 33.4933 92.0069 34C92.4869 34.4933 93.0535 34.8667 93.7069 35.12C94.3735 35.36 95.1069 35.48 95.9069 35.48C96.7069 35.48 97.3935 35.3867 97.9669 35.2C98.5535 35.0133 99.0602 34.8067 99.4869 34.58C99.9269 34.3533 100.307 34.1467 100.627 33.96C100.96 33.7733 101.28 33.68 101.587 33.68C102 33.68 102.307 33.8333 102.507 34.14L103.927 35.94C103.38 36.58 102.767 37.12 102.087 37.56C101.407 37.9867 100.694 38.3333 99.9469 38.6C99.2135 38.8533 98.4602 39.0333 97.6869 39.14C96.9269 39.2467 96.1869 39.3 95.4669 39.3C94.0402 39.3 92.7135 39.0667 91.4869 38.6C90.2602 38.12 89.1935 37.42 88.2869 36.5C87.3802 35.5667 86.6669 34.42 86.1469 33.06C85.6269 31.6867 85.3669 30.1 85.3669 28.3C85.3669 26.9 85.5935 25.5867 86.0469 24.36C86.5002 23.12 87.1469 22.0467 87.9869 21.14C88.8402 20.22 89.8735 19.4933 91.0869 18.96C92.3135 18.4267 93.6935 18.16 95.2269 18.16C96.5202 18.16 97.7135 18.3667 98.8069 18.78C99.9002 19.1933 100.84 19.8 101.627 20.6C102.414 21.3867 103.027 22.36 103.467 23.52C103.92 24.6667 104.147 25.98 104.147 27.46C104.147 28.2067 104.067 28.7133 103.907 28.98C103.747 29.2333 103.44 29.36 102.987 29.36H90.2869ZM122.594 20.52C122.594 20.8667 122.534 21.2067 122.414 21.54C122.294 21.8733 122.134 22.1467 121.934 22.36L112.194 35.2H122.294V39H106.454V36.94C106.454 36.7133 106.507 36.4467 106.614 36.14C106.721 35.82 106.881 35.52 107.094 35.24L116.934 22.26H107.034V18.48H122.594V20.52Z" fill="black"/>
<circle cx="141" cy="22.5" r="9" fill="#A5E3E3"/>
<circle cx="157" cy="38.5" r="7" fill="#D2A2F7"/>
</svg>
