<svg width="24" height="24" viewBox="0 0 24 24" fill="none" xmlns="http://www.w3.org/2000/svg">
<path fill-rule="evenodd" clip-rule="evenodd" d="M12 2.37492C10.6209 2.37492 9.29823 2.95439 8.32304 3.98584C7.34786 5.0173 6.8 6.41625 6.8 7.87494C6.8 9.33364 7.34786 10.7326 8.32304 11.764C9.29823 12.7955 10.6209 13.375 12 13.375C13.3791 13.375 14.7018 12.7955 15.677 11.764C16.6521 10.7326 17.2 9.33364 17.2 7.87494C17.2 6.41625 16.6521 5.0173 15.677 3.98584C14.7018 2.95439 13.3791 2.37492 12 2.37492ZM5.5 7.87494C5.50002 6.54451 5.865 5.24266 6.5507 4.12728C7.23639 3.0119 8.21333 2.13092 9.36303 1.59118C10.5127 1.05143 11.7858 0.876122 13.0278 1.0865C14.2699 1.29688 15.4275 1.88391 16.3604 2.7764C17.2932 3.66889 17.9612 4.8285 18.2833 6.11457C18.6054 7.40065 18.5678 8.75795 18.175 10.0219C17.7822 11.2858 17.0511 12.402 16.0704 13.2351C15.0897 14.0683 13.9016 14.5826 12.65 14.7156V17.5H15.25C15.4224 17.5 15.5877 17.5724 15.7096 17.7013C15.8315 17.8303 15.9 18.0051 15.9 18.1875C15.9 18.3698 15.8315 18.5447 15.7096 18.6736C15.5877 18.8026 15.4224 18.875 15.25 18.875H12.65V22.3125C12.65 22.4948 12.5815 22.6697 12.4596 22.7986C12.3377 22.9276 12.1724 23 12 23C11.8276 23 11.6623 22.9276 11.5404 22.7986C11.4185 22.6697 11.35 22.4948 11.35 22.3125V18.875H8.75C8.57761 18.875 8.41228 18.8026 8.29038 18.6736C8.16848 18.5447 8.1 18.3698 8.1 18.1875C8.1 18.0051 8.16848 17.8303 8.29038 17.7013C8.41228 17.5724 8.57761 17.5 8.75 17.5H11.35V14.7156C9.74669 14.5452 8.26039 13.7509 7.17944 12.4869C6.0985 11.2229 5.49998 9.5793 5.5 7.87494Z" fill="white"/>
</svg>
