<svg width="24" height="24" viewBox="0 0 24 24" fill="none" xmlns="http://www.w3.org/2000/svg">
<path fill-rule="evenodd" clip-rule="evenodd" d="M14.2505 3C14.0516 3 13.8608 2.92098 13.7201 2.78033C13.5795 2.63968 13.5005 2.44891 13.5005 2.25C13.5005 2.05109 13.5795 1.86032 13.7201 1.71967C13.8608 1.57902 14.0516 1.5 14.2505 1.5H21.7505C21.9494 1.5 22.1402 1.57902 22.2808 1.71967C22.4215 1.86032 22.5005 2.05109 22.5005 2.25V9.75C22.5005 9.94891 22.4215 10.1397 22.2808 10.2803C22.1402 10.421 21.9494 10.5 21.7505 10.5C21.5516 10.5 21.3608 10.421 21.2201 10.2803C21.0795 10.1397 21.0005 9.94891 21.0005 9.75V4.0605L14.807 10.254C16.0247 11.7438 16.6232 13.6446 16.4789 15.5633C16.3345 17.482 15.4582 19.2718 14.0312 20.5626C12.6042 21.8533 10.7358 22.5463 8.81224 22.4981C6.88871 22.45 5.05727 21.6643 3.6967 20.3038C2.33613 18.9432 1.55052 17.1118 1.50235 15.1882C1.45418 13.2647 2.14713 11.3962 3.43789 9.96928C4.72865 8.54232 6.51847 7.66602 8.43718 7.52162C10.3559 7.37723 12.2567 7.97579 13.7465 9.1935L19.94 3H14.2505ZM9.00048 9C7.40918 9 5.88306 9.63214 4.75784 10.7574C3.63262 11.8826 3.00048 13.4087 3.00048 15C3.00048 16.5913 3.63262 18.1174 4.75784 19.2426C5.88306 20.3679 7.40918 21 9.00048 21C10.5918 21 12.1179 20.3679 13.2431 19.2426C14.3683 18.1174 15.0005 16.5913 15.0005 15C15.0005 13.4087 14.3683 11.8826 13.2431 10.7574C12.1179 9.63214 10.5918 9 9.00048 9Z" fill="white"/>
</svg>
